<?xml version="1.0" encoding="utf-8"?>
<!-- Generator: Adobe Illustrator 21.0.0, SVG Export Plug-In . SVG Version: 6.00 Build 0)  -->
<svg version="1.1" id="Layer_1" xmlns="http://www.w3.org/2000/svg" xmlns:xlink="http://www.w3.org/1999/xlink" x="0px" y="0px"
	 viewBox="0 0 1939 1170" style="enable-background:new 0 0 1939 1170;" xml:space="preserve">
<style type="text/css">
	.st0{fill:#FFE236;}
	.st1{fill:#998223;}
	.st2{fill:#8AE6E0;}
	.st3{fill:#D5F5F3;}
	.st4{fill:#BBF2DF;}
	.st5{fill:#D5F5EF;}
	.st6{opacity:0.1;fill:#00DDFF;}
	.st7{fill:#72CABB;}
	.st8{fill:none;stroke:#2F7E8C;stroke-width:3;stroke-miterlimit:10;}
	.st9{fill:none;stroke:#2F7E8C;stroke-width:4;stroke-miterlimit:10;}
	.st10{fill:#425460;}
	.st11{fill:#21272D;}
	.st12{fill:#DAA082;}
	.st13{fill:#FCCDB6;}
	.st14{fill:#684133;}
	.st15{fill:#FFFFFF;}
	.st16{fill:#B9B9B9;}
	.st17{fill:#DC999D;}
	.st18{fill:#CF8F8B;}
	.st19{fill:#F4F3F6;}
	.st20{fill:#EFF7F8;}
	.st21{fill:#879FC4;}
	.st22{fill:none;stroke:#60510D;stroke-miterlimit:10;}
	.st23{fill:#F9FB7D;}
	.st24{fill:#20200C;}
	.st25{fill:#E7B6BA;}
	.st26{fill:#8BE3F5;}
	.st27{fill:#008595;}
	.st28{fill:#F3EB75;}
	.st29{fill:#001002;}
	.st30{fill:#2E3E40;}
	.st31{fill:#000800;}
	.st32{fill:none;stroke:#757B67;stroke-width:2;stroke-miterlimit:10;}
	.st33{fill:#DFE6F7;}
	.st34{fill:#001001;}
	.st35{fill:#E0AFAF;}
	.st36{fill:#392C1C;}
	.st37{fill:none;stroke:#0C0B01;stroke-miterlimit:10;}
	.st38{opacity:0.87;fill:#00DDFF;}
	.st39{fill:#8C8C8C;}
	.st40{fill:#4E2E7A;}
	.st41{fill:#F9B50F;}
	.st42{fill:#999999;}
	.st43{fill:#4FDB70;}
	.st44{fill:none;stroke:#F9B50F;stroke-width:5;stroke-miterlimit:10;}
	.st45{fill:#FC516A;}
	.st46{fill:#3A2227;}
	.st47{fill:none;stroke:#4E2E7A;stroke-width:3;stroke-miterlimit:10;}
	.st48{fill:#6B6B6B;}
	.st49{fill:#296D37;}
	.st50{fill:#AB8FD8;}
</style>
<polygon class="st0" points="1682.2,994.6 139,995.4 483.2,843.7 1350.5,844.5 "/>
<rect x="146.7" y="996.5" class="st1" width="1540.3" height="44.5"/>
<g>
	<polygon class="st2" points="423.4,413 1340.1,407.3 1340.1,432.5 1301.9,451.9 1274.7,451.9 1276.9,859.7 1266,859.7 
		1265.1,820.8 1084.3,821.9 1084.3,859.7 1071.6,859.7 1070.7,821.9 889,821.9 889,865.4 876.3,865.4 876.3,820.8 692.8,820.8 
		691.9,865.4 680.1,865.4 679.1,818.5 504.7,819.6 504.7,860.8 489.3,859.7 491.1,452.5 462.5,453.1 423,437.6 	"/>
	<rect x="502.9" y="452.5" class="st3" width="178.1" height="211.6"/>
	<rect x="697.3" y="452.5" class="st3" width="178.1" height="211.6"/>
	<rect x="889.9" y="452.5" class="st3" width="178.1" height="211.6"/>
	<rect x="1086.1" y="452.5" class="st3" width="178.1" height="211.6"/>
	<rect x="502.9" y="685.8" class="st4" width="178.1" height="114.4"/>
	<rect x="697.3" y="685.8" class="st4" width="178.1" height="114.4"/>
	<rect x="889.9" y="685.8" class="st4" width="178.1" height="114.4"/>
	<rect x="1086.1" y="685.8" class="st4" width="178.1" height="114.4"/>
	<polygon class="st5" points="423.4,410.8 422.5,438.2 1340.1,432.5 1340.1,407.3 	"/>
</g>
<rect x="363.7" y="304.5" class="st6" width="841.5" height="473.4"/>
<g>
	<path class="st7" d="M1085,836.5c0,0,95.5-81.9,98.2-95.5c0,0-101-111.9-98.2-199.2c0,0,10.9-169.2,24.6-196.5
		c0,0,91.4,75,116,195.1c0,0,10.9,150.1,0,158.3c0,0,27.3-21.8,40.9-40.9c0,0,13.6-65.5,10.9-92.8c0,0-43.7-92.8-16.4-188.3
		c0,0,16.4-68.2,65.5-111.9c0,0,51.8,92.8,51.8,139.2c0,0-5.5,125.5-32.7,139.2l-38.2,30l-10.9,57.3l95.5-98.2l16.4-35.5
		c0,0,5.5-98.2,13.6-114.6c0,0,46.4-120.1,169.2-131c0,0,19.1,79.1-35.5,161c0,0-70.9,106.4-131,101c0,0-101,122.8-128.3,141.9h43.7
		c0,0,76.4-92.8,204.7-76.4l106.4,24.6c0,0-19.1,90.1-144.6,106.4c0,0-92.8,13.6-128.3-35.5l-90.1,5.5l-70.9,51.8l2.7,13.6
		c0,0,60-46.4,215.6,10.9c0,0,76.4,43.7,101,49.1c0,0-90.1,70.9-182.8,73.7c0,0-141.9-8.2-166.5-101v-13.6l-84.6,84.6
		C1102.7,848.8,1080.9,856.9,1085,836.5z"/>
	<path class="st8" d="M1196.9,727.3c0,0-57.3-101-49.1-196.5c0,0,8.2-76.4-24.6-131"/>
	<path class="st8" d="M1147.8,536.3c0,0-40.9-21.8-46.4-65.5"/>
	<path class="st8" d="M1093.2,528.1c12.6,60.8,62.9,92.9,62.9,92.9s65.4-43.8,62.6-84.7"/>
	<path class="st8" d="M1292.4,566.3c0,0-2.7-114.6,21.8-144.6c0,0,32.7-54.6,10.9-141.9"/>
	<path class="st8" d="M1325.1,405.3c0,0-36.6-7.7-40.9-70.9"/>
	<path class="st8" d="M1300.6,457.2c0,0-32.7-13.6-32.7-81.9"/>
	<path class="st8" d="M1297.7,470.8c0,0,24.7-40.9,71.1-46.4"/>
	<path class="st9" d="M1417.9,503.6c0,0,87.3-81.9,111.9-150.1c0,0,10.9-27.3,51.8-95.5"/>
	<path class="st9" d="M1517.5,382.1c0,0-27.3-32.7-17.7-91.4"/>
	<path class="st9" d="M1533.6,332.1c0,0-13.6-9.2,3-61.9"/>
	<line class="st9" x1="1488.6" y1="424.4" x2="1569.4" y2="376.7"/>
	<path class="st9" d="M1367.4,657.7c0,0,133.7,38.2,272.9-46.4"/>
	<line class="st9" x1="1482" y1="663.2" x2="1526.2" y2="583.1"/>
	<line class="st9" x1="1525.7" y1="655" x2="1558.5" y2="592.3"/>
	<line class="st9" x1="1592.4" y1="592.3" x2="1566.6" y2="644.1"/>
	<path class="st9" d="M1512.1,660.2c0,0-8.4,21.4,49.1,30.3"/>
	<path class="st9" d="M1539.4,655c0,0,27.3,8.2,62.8,8.2"/>
	<path class="st9" d="M1195.5,753.3c0,0,16.4,43.7,92.8,54.6s79.1-21.8,177.4-8.2l54.3,10.5"/>
	<line class="st9" x1="1357.7" y1="805.2" x2="1406.6" y2="753.3"/>
	<line class="st9" x1="1417.9" y1="796.3" x2="1441.1" y2="769.6"/>
</g>
<g>
	<path class="st10" d="M955.8,691.1h84.8c0,0,17.5,80.4,17.5,108.2c0,0,15.3,34.4,11,66.5c0,0,13.2,11.7,13.2,13.2v5.8
		c0,0,5.8,5.8,2.9,13.2l-29.2,4.4c0,0-13.2-7.3-10.2-14.6c0,0-14.6-46.8-16.1-64.3c0,0-24.8-67.3-26.3-81.9c0,0-4.4,65.8-2.9,76
		c0,0,24.8,43.9,10.2,64.3c0,0,14.6,8.8,0,24.9l-16.1-10.2l-16.1,2.9c0,0-7.3-4.4,1.5-13.2l-7.3-10.2c0,0-2.9-2.9-1.5-19v-36.6
		c0,0-20.5-90.6-16.1-108.2L955.8,691.1z"/>
	<path class="st11" d="M962.4,669.2c0,0-1.5,5.8-2.9,8.8c0,0-2.9,11.7-4.4,16.1c0,0,57,11.7,86.2,0c0,0-5.8-29.2-4.4-30.7
		L962.4,669.2z"/>
	<path class="st12" d="M1055.9,625.4c2.9-8.8-1.5-16.1-1.5-16.1c-1.5-1.5-4.4-7.3-4.4-7.3l-1.5-19c-1.5-16.1-19-20.5-19-20.5
		l-21.9-5.8c-4.4,0-4.4-1.5-4.4-1.5v-8.8l-30.7,1.5v11.7l-2.9,2.9l-21.9,11.7c-20.5,10.2-17.5,30.7-17.5,30.7
		c0,5.8-2.9,14.6-2.9,14.6c-5.8,7.3-5.8,21.9-5.8,21.9c-5.8,17.5,2.2,24.1,2.2,24.1c14.6,8.8,51.2,7.3,51.2,7.3l8.8,1.5l13.2,2.9
		l5.1-5.1l4.4-1.5l5.8-2.9l5.8,2.9h8.8l2.9-1.5l7.3-5.8v-5.8l21.9-11.7C1064.7,635.6,1055.9,625.4,1055.9,625.4z M943.4,645.8v-2.9
		V637c4.4-2.9,8.8-20.5,8.8-20.5s1.5-4.4,2.9,1.5c1.5,5.8,2.9,32.2,2.9,32.2C955.1,648.7,943.4,645.8,943.4,645.8z M1034,638.5
		c0,0-1.5-21.9-1.5-24.9c0,0,5.8,20.5,7.3,20.5L1034,638.5z"/>
	<path class="st13" d="M969.7,540.6c0,0-5.8,2.9-7.3-13.2l3.7,0.7c0,0-8.8-23.4,17.5-30.7c0,0,19-2.9,23.4,14.6c0,0,1.5,10.2,0,13.2
		l2.9-1.5c0,0,5.8,5.8-4.4,14.6c0,0-1.5,13.2-11.7,17.5c0,0-7.3,4.4-16.1,0C977.7,555.9,970.4,548.6,969.7,540.6z"/>
	<path class="st14" d="M966.8,508.5c0,0,5.8-11.4,17.5-11.4c0,0,13.2-2.9,20.5,8.6c0,0-13.2-2.9-19,5.7
		C985.8,511.3,974.1,502.7,966.8,508.5z"/>
	<path class="st11" d="M947.8,571.3c0,0,17.5-7.3,20.5-11.7h4.4c0,0-8.8,17.5,14.6,17.5c0,0,21.9,0,17.5-21.9h2.9
		c0,0,17.5,5.8,20.5,7.3h2.9c0,0-5.8,30.7,1.5,49.7l1.5,27.8l-2.9,2.9l-4.4,2.9l-2.9,1.5l-2.9,7.3H996l-10.2,1.5
		c0,0-4.4,2.9-14.6,1.5c0,0-13.2-5.8-13.2-7.3c0,0-2.2-27-3.7-31.4l-1.5-2.9C952.9,615.8,957.3,583.7,947.8,571.3z"/>
	<path class="st15" d="M985.8,655.3l59.9-5.8c0,0,5.1-0.7,5.1,5.1c0,0,1.5,4.4-1.5,5.8h-22.7c0,0-4.4,2.9-2.9-2.9
		c0,0-12.4-5.8-16.8,0c0,0-1.5,5.8,1.5,8.8c0,0-11.7,1.5-14.6,0l-2.9-2.9l10.2-1.5c0,0,4.4,0,2.9-4.4L985.8,655.3z"/>
	<path class="st16" d="M1049.3,914.8l2.9-17.5h2.9l4.4-10.2h16.1c0,0,4.4,4.4,4.4,8.8l13.9,12.4v8.8c0,0-13.2,5.8-27.8,1.5l-2.9-2.9
		C1063.2,915.6,1053,917,1049.3,914.8z"/>
	<path class="st16" d="M980.6,895.2c0,0,10.2-4.4,17.5-2.9c0,0,5.1,8,13.9,8l4.4,10.2c0,0,1.5,2.9-5.8,2.9h-8.8
		c0,0-1.5,5.8-13.2,5.8h-14.6c0,0-4.4,0-4.4-2.9v-10.2L980.6,895.2z"/>
</g>
<path class="st17" d="M1253.7,657l47.3-9.6l12.8,31.3c0,0-18.9,21.3-39.7,16.4c0,0-16-7.2-20.9-14.4l-12-19.3L1253.7,657z"/>
<path class="st17" d="M1334.8,785.3l-10.4-3.2l-2.4,14.4l6.4,2.4C1328.3,799,1334.8,795,1334.8,785.3z"/>
<g>
	<path class="st18" d="M1252.5,917.3l8,24.9c0,0,3.2,14.4,0,16l-9.2,9.2l-0.8,5.6l1.6,2.4h23.3l1.6-4l2.4-6.4v-18.5
		c0,0-4-5.6-4-14.4v-18.5L1252.5,917.3z"/>
	<path class="st19" d="M1250.5,972.1c0,0-0.8-7.4,8.2-11.4l17.6-0.4c0,0,4.9,1.6,2.5,7.4l-1.7,3.9l-3.2,0.2c0,0,1.6-8.2-9-8.2
		C1264.8,963.5,1250.9,961.9,1250.5,972.1z"/>
	<polygon class="st19" points="1250.5,972.3 1277,971.5 1275.4,975.5 1252.1,975.5 	"/>
</g>
<g>
	<path class="st18" d="M1305.1,929l4,3.2c0,0,7.2,15.2,8,23.3l0.4,12.4c0,0-2.4,4.8,0,7.2l13.6,3.2l20.9,5.6c0,0,12-0.8,12.8-2.4
		c0,0,1.6-4-4.8-5.6l-4-1.6l-8.8-4.8c0,0-11.2-8-12.8-12.8l-1.6-23.3L1305.1,929z"/>
	<path class="st20" d="M1330.3,977.5c0,0,6-6.8,20.5-6.8l9.6,5.6c0,0-12-3.2-10.4,5.6c0,0,9.6,0.8,14.4-1.6l3.2,1.6l-0.8,2.4
		l-22.5,0.8h-2.4l-22.5-4l-2.4-6.4L1330.3,977.5z"/>
</g>
<path class="st21" d="M1222,766.9l3.2,48.1c0,0,12,23.3,12.8,40.9c0,0,6.8,65.4,9.2,75c0,0,29.7,4,36.9-5.6c0,0-4-38.5,0-50.6
	c0,0,1.6-11.2,1.6-19.3c0,0,15.2,34.5,16.8,51.4v29.7c0,0,40.1-1.6,41.7,0c0,0-3.2-38.5-7.2-55.4c0,0-6.4-22.5-4-40.1
	c0,0-0.8-42.5-4.8-57.8l-2.4-7.2L1222,766.9z"/>
<polygon class="st22" points="1192.3,831.7 1206,811.4 1218.8,813 1214,841.1 "/>
<polygon class="st22" points="1210.8,813.8 1205.2,841.1 1225.3,848.3 1225.3,811.4 "/>
<path class="st17" d="M1206.4,784.5v4v4c0,0-4,10.4-4,17.7c0,0,0.4,2,3.6,1.2v4.8c0,0,1.6,2.4,4,0.8c0,0,2.4,2.4,4.8,0.8
	c0,0,4,1.6,4-1.6c0,0,4.8-2.4,5.6-4.8c0.8-2.4,0.8-11.2,0.8-11.2s0-4.8-1.6-8.8l-0.8-7.2v-4.8L1206.4,784.5z"/>
<path class="st23" d="M1240.1,661c0,0-22.5,11.2-24.9,21.7c0,0-5.2,17.3-7.6,39.7c0,0-6.4,36.1-3.2,51.4l-0.8,19.3
	c0,0,15.2-8.8,20.9-6.4l-1.2-15.6c0,0,30.1,33.3,82.2,23.7c0,0,17.6-8.8,21.7-9.6l8,1.6l4.8-17.7c0,0,4.8-4,4.8-11.2
	c0,0,3.2-14.4,0-28.9c0,0-4-15.2-3.2-26.5c0,0,2.1-23.5-12.4-40.4c0,0-17.1-8.4-25.1-8.4c0,0,0.6,29.5-2.7,31.1c0,0-8,12.8-28.1,9.6
	c0,0-23.3-9.6-30.5-31.3L1240.1,661z"/>
<path class="st24" d="M1250.5,633.7c0,0-8,0.8-13.6,22.5c0,0-10.4-0.8-5.6,10.4l12.4,0.4c0,0,9.6,15.2,13.6,16c0,0,13.6-2.4,12,4.8
	c0,0-1.6,1.6-5.6,0c0,0,6.4,7.2,9.6,0.8c0,0,6.4-8.8-6.4-10.4l-0.8-4l5.6-1.6l-6.4-5.6L1250.5,633.7z"/>
<path class="st25" d="M1245.3,619.6c0,0-6.4,8-3.2,17.7l1.2,4.4c0,0-0.8,13.6,4.8,19.3c0,0-0.2-0.2,1.6,2.4c0,0,1.8,3.3,7.2,6.4
	c0,0,20.1,2,23.3-18.1c0,0,4-1.6,4-8.8v-1.6l-4.8-3.6l-3.2-1.2C1276.2,636.5,1274.6,604.8,1245.3,619.6z"/>
<path class="st24" d="M1241.7,619.2c1.6-3.6,12.8-12,12.8-12s21.7-7.2,35.3,12c0,0,7.6,6,7.6,10c0,0,9.6,1.6,10.4,9.6l8.2,18.2
	c0,0-2.4-4.8-8.2,1h-4c0,0,2.4,13.6-6.4,8.8c0,0,3.2,22.5-4.8,24.9c0,0-7.2,2.4-8.8-2.4c0,0-13.6,5.6-6.4-9.6l5.6-1.6
	c0,0-8.8-6.4,0-24.9l-2.8-1.6c0,0,4.4-4,3.6-10.4l-8.4-4.8l-10.8-16.9c0,0-8-6.4-19.7,0.8l-2.4,4
	C1242.5,624.5,1240.1,622.9,1241.7,619.2z"/>
<path class="st26" d="M1162.7,829.5l22.5-1.6l12,6.4h8c0,0,44.1,17.7,44.9,19.3c0,0-14.8,55-19.7,60.6l-0.8,11.2l-3.2,5.6l-1.2,3.6
	l-5.2-0.4c0,0-26.5-2.4-37.7-8.8c0,0-20.9-8.8-26.5-8.8c0,0-12-3.2-13.6-5.6l-5.6-6.4v-4l10.4-9.6l2.4-11.2l10.4-11.2L1162.7,829.5z
	"/>
<path class="st27" d="M1137,904.9l15.2-6.4c0,0,28.9-0.8,49.7,20.1c0,0,11.6,11.6,14,10l8-1.6l2.4,4c0,0-3.2,6.4-12.8,4l-32.1-11.2
	c0,0-32.1-9.6-39.3-12L1137,904.9z"/>
<path class="st28" d="M1223.7,770.9c0,0-0.8-28.9,1.6-32.1c0,0,7.2-12,10.4-19.3c3.2-7.2,1.6-21.7,0.8-24.9c0,0-8-21.7-12.8-21.7
	h-1.6c0,0-11.2,6.4-12.8,32.9l-3.2,26.5l-3.2,33.7c0,0-5.6,5.6,0,8l0.8,19.3c0,0,9.6-6.4,20.9-4"/>
<path class="st28" d="M1329.2,661.9c0,0-6.5,24.7-4.9,35.1c0,0-2.4,19.3,0,36.9c0,0,1.6,14.4,4,24.9c0,0,4,21.7,0,26.5h7.2l5.6-16
	c0,0,8.8-19.3,4.8-38.5c0,0-4.8-19.3-3.2-27.3C1342.8,703.5,1345.3,671.6,1329.2,661.9z"/>
<g>
	<path class="st29" d="M467.7,946.7c0,0-4.2,7.6-10.9,10.9l-6.7,2.5c0,0-7.6-0.8-8.4,6.7c-0.8,7.6-0.8,5.1-0.8,5.1
		s20.6,2.1,43.4-2.1c0,0,21,0.8,22.7-2.5c0,0-0.8-1.7,0-5.9l-21-15.2L467.7,946.7z"/>
	<path class="st29" d="M570.4,960.2l1.7-9.3l10.1-5.9l7.6,1.7l5.9,13.5v13.5c0,0,0,3.4-10.1,5.1c0,0-17.7,0.8-20.2-1.7v-6.7
		L570.4,960.2z"/>
	<path class="st30" d="M521.6,733.7l13.5,3.4h6.7c0,0,9.3,8.4,32,0c0,0,11.8-7.6,12.6-9.3l17.3,0.4h13.5l5.1,51.4l-2.5,11.8
		l-0.8,6.7c0,0-2.5,32.8-5.1,48.8c0,0-2.5,26.1-1.7,32.8c0,0,0.8,27.8-3.4,56.4c0,0-2.5,14.3-6.7,16.8l-5.9,8.4
		c0,0-10.1-13.5-26.1-2.5c0,0-9.3-10.9-5.1-24.4c0,0,7.6-16.8,6.7-32.8c0,0-1.7-15.2,6.7-29.5c0,0-5.9-12.6-6.7-18.5
		c0,0-7.6-33.7-7.6-37.9s-21.9,55.6-31.1,69c0,0-11.8,46.3-23.6,61.5c0,0-4.2,6.7-3.4,15.2c0,0-14.3,3.4-24.4-5.1
		c0,0-10.1-8.4-16-6.7l5.1-13.5l7.6-14.3l1.7-1.7c0,0,5.1-6.7,0.8-10.1c0,0-0.8-10.9,2.5-15.2l13.5-41.3c0,0,1.7-23.6,5.1-27.8
		c0,0,9.3-27.8,9.3-28.6c0-0.8,0-34.5,0-34.5L521.6,733.7z"/>
	<g>
		<path class="st31" d="M526.7,734.5l9.3-1.7c0,0,2.2,11.2,15.1,9.3c2.2-0.3,4.5-0.9,7.2-1.7c0,0,17.7-5.9,20.2-9.3l10.5-5.5v10.9
			l-8.4,5.9c0,0-16.8,7.6-20.2,7.6c0,0-19.4,2.5-31.1-1.7l-9.3-0.8v-5.9V740L526.7,734.5z"/>
		<path class="st32" d="M551.1,742.1l1.4,8.8c0,0,13.9-0.4,17.2-3.7l-2.4-10C567.3,737.1,561.2,739.6,551.1,742.1z"/>
	</g>
	<path class="st33" d="M559.1,600.2c0,0-0.8,8.4,7.6,12.6c0,0,0.5,1.7,0.7,3.9c0.2,2.2,0.1,4.9-1.1,6.6c0,0,4.2-0.8,3.4-5.9
		c0,0,1.7-5.9,7.6-8.4c0,0,10.9-7.6,11.8-13.5l0.8-1.7h2.5c0,0-0.8,3.4,5.9,10.9l1.7,3.4c0,0,0,7.6-3.4,12.6v7.6
		c0,0-5.1,13.5-6.7,23.6c0,0-5.1,25.3-5.9,33.7c0,0-2.5,36.2-0.8,42.9c0,0-20.2,18.5-38.7,13.5l-7.6-4.2c0,0-6.7,0.8-5.9-4.2
		l-10.9-25.3l10.9-58.9l15.2-23.6v-10.1l5.9-6.7l1.7-6.7L559.1,600.2z"/>
	<path class="st34" d="M557.8,595.6l1.7,5.1l-3.8,2.5c0,0-2.9,1.3-4.6,8.8l-6.7,23.6c0,0-6.7,26.9-3.4,33.7l-3.4,4.2
		c0,0-0.8,3.4,0.8,5.1v2.5c0,0-10.9,10.1-6.7,48l-0.8,8.4c0,0,3.4,36.2-14.3,41.3l-13.5-10.1l-7.6,6.7c0,0-4.2,2.5-2.5-12.6
		c0,0,0.8-60.6,6.7-79.1c0,0,1.7-26.1,7.6-36.2c0,0,8.4-25.3,19.4-30.3l-3.4-5.1c0,0,10.1,2.5,16.8-5.9L557.8,595.6z"/>
	<g>
		<path class="st35" d="M556.1,539.2l-9.3,17.7v5.9l-5.5,10.5l5.1,2.5v5.1c0,0-3.4,9.3,3.4,11.8c0,0,9.7,1.3,9.7,13.1
			c0,0,0,6.7,2.5,7.6c0,0,5.1,3.4,3.4,7.6l0.8,4.2c0,0,5.5-3.8,4.6-8c0,0,3.4-5.9,7.6-7.6c0,0,11.8-5.9,12.6-16l2.5-6.7l5.9-16.8
			l-5.9-19.4l-11.8-11.8h-5.1L556.1,539.2z"/>
		<path class="st36" d="M551.9,546.7c0,0,1.7-8.4,10.1-9.3c0,0,27.4-5.5,35.8,11.4c0,0,8.4,13.5,2.5,27.8c0,0-5.9,15.2-9.3,16.8
			l-1.7-5.9c0,0-3.4-4.2-2.5-8.4c0,0,6.7-5.1,5.9-9.3c0,0-3.4-5.9-8.4,0c0,0,0.4-2.1,0.4-0.4l-1.7,2.5l-1.3,0.4c0,0-9.3,0.8-9.3-5.1
			c0,0,0.8-6.7-0.8-10.1c0,0,7.6-4.2,4.2-10.9c0,0-5.9-1.7-11.8,0C564.1,546.3,552.3,548,551.9,546.7z"/>
	</g>
	<path class="st34" d="M591.1,591.8c0,0,14.3,6.7,15.2,13.5c0,0,13,11.4,14.7,12.2v2.5c0,0,20.2,14.3,17.7,53.9
		c0,0,5.1,42.1,3.4,58.1c0,0-0.8,16.8-2.5,19.4c0,0-0.8,20.2-8.4,30.3l-5.1,13.5h-16l-9.3-5.1l-24.4-11.8l-3.4-0.8l12.6-28.6
		c0,0-8.4-42.1,0.8-77.5c0,0,5.9-41.3,8.4-45.5c0,0,5.9-12.6,5.1-18.5C599.9,607.4,591.5,599.8,591.1,591.8z"/>
</g>
</svg>
